<svg width="285" height="284" viewBox="0 0 285 284" fill="none" xmlns="http://www.w3.org/2000/svg">
<rect width="284.014" height="283.299" fill="white"/>
<path d="M137 243C146 241.967 162.4 239.5 166 235.5C166.5 234.5 167 231.3 165 226.5C163 221.7 145.5 175.167 137 152.5V243Z" fill="#E50027"/>
<path d="M137 68C137 65.6 134.333 64.3333 133 64C61 64 40.5 121.833 40 151.5C40 219.5 106.5 246.5 137 243V152.5V68Z" fill="#FD0039"/>
<path d="M149 131C149 133 151 135 153 135H240C241.5 135 243 133.6 243 132C248 100 221 40 153 40C151.667 40.5 149 42 149 44V131Z" fill="#FE9923"/>
<path d="M153 148C151.5 148 148.1 150.6 148.5 155L179 234.5C179.833 236.667 182.6 240.4 187 238C192.5 235 245 213.5 244 150.5C244 149.667 243 148 239 148H153Z" fill="#1988FB"/>
</svg>
