<svg width="939" height="351" viewBox="0 0 939 351" fill="none" xmlns="http://www.w3.org/2000/svg">
<path d="M137 276.851C146 275.818 162.4 273.351 166 269.351C166.5 268.351 167 265.151 165 260.351C163 255.551 145.5 209.017 137 186.351V276.851Z" fill="#E50027"/>
<path d="M137 101.851C137 99.4506 134.333 98.1839 133 97.8506C61 97.8506 40.5 155.684 40 185.351C40 253.351 106.5 280.351 137 276.851V186.351V101.851Z" fill="#FD0039"/>
<path d="M149 164.851C149 166.851 151 168.851 153 168.851H240C241.5 168.851 243 167.451 243 165.851C248 133.851 221 73.8506 153 73.8506C151.667 74.3506 149 75.8506 149 77.8506V164.851Z" fill="#FE9923"/>
<path d="M153 181.851C151.5 181.851 148.1 184.451 148.5 188.851L179 268.351C179.833 270.517 182.6 274.251 187 271.851C192.5 268.851 245 247.351 244 184.351C244 183.517 243 181.851 239 181.851H153Z" fill="#1988FB"/>
<path d="M362.526 134.818V160.273H288.946V134.818H362.526ZM305.651 105.545H339.537V219.455C339.537 222.583 340.014 225.023 340.969 226.773C341.923 228.47 343.249 229.663 344.946 230.352C346.696 231.042 348.711 231.386 350.991 231.386C352.582 231.386 354.173 231.254 355.764 230.989C357.355 230.67 358.575 230.432 359.423 230.273L364.753 255.489C363.056 256.019 360.669 256.629 357.594 257.318C354.518 258.061 350.779 258.511 346.378 258.67C338.211 258.989 331.052 257.902 324.901 255.409C318.802 252.917 314.056 249.045 310.662 243.795C307.268 238.545 305.597 231.917 305.651 223.909V105.545ZM384.599 257V134.818H418.486V257H384.599ZM401.622 119.068C396.584 119.068 392.262 117.398 388.656 114.057C385.103 110.663 383.327 106.606 383.327 101.886C383.327 97.2197 385.103 93.2159 388.656 89.875C392.262 86.4811 396.584 84.7841 401.622 84.7841C406.66 84.7841 410.955 86.4811 414.508 89.875C418.115 93.2159 419.918 97.2197 419.918 101.886C419.918 106.606 418.115 110.663 414.508 114.057C410.955 117.398 406.66 119.068 401.622 119.068ZM480.472 259.307C472.676 259.307 465.729 257.955 459.631 255.25C453.532 252.492 448.706 248.436 445.153 243.08C441.653 237.67 439.903 230.936 439.903 222.875C439.903 216.087 441.15 210.386 443.642 205.773C446.134 201.159 449.528 197.447 453.824 194.636C458.119 191.826 462.998 189.705 468.46 188.273C473.975 186.841 479.756 185.833 485.801 185.25C492.907 184.508 498.634 183.818 502.983 183.182C507.331 182.492 510.487 181.485 512.449 180.159C514.411 178.833 515.392 176.871 515.392 174.273V173.795C515.392 168.758 513.801 164.86 510.619 162.102C507.49 159.345 503.036 157.966 497.256 157.966C491.157 157.966 486.305 159.318 482.699 162.023C479.093 164.674 476.706 168.015 475.54 172.045L444.199 169.5C445.79 162.076 448.919 155.659 453.585 150.25C458.252 144.788 464.271 140.598 471.642 137.682C479.066 134.712 487.657 133.227 497.415 133.227C504.203 133.227 510.699 134.023 516.903 135.614C523.161 137.205 528.703 139.67 533.528 143.011C538.407 146.352 542.252 150.648 545.062 155.898C547.873 161.095 549.278 167.326 549.278 174.591V257H517.142V240.057H516.187C514.225 243.875 511.6 247.242 508.312 250.159C505.025 253.023 501.074 255.277 496.46 256.92C491.847 258.511 486.517 259.307 480.472 259.307ZM490.176 235.92C495.161 235.92 499.562 234.939 503.381 232.977C507.199 230.962 510.195 228.258 512.369 224.864C514.544 221.47 515.631 217.625 515.631 213.33V200.364C514.57 201.053 513.112 201.689 511.256 202.273C509.453 202.803 507.411 203.307 505.131 203.784C502.85 204.208 500.57 204.606 498.29 204.977C496.009 205.295 493.941 205.587 492.085 205.852C488.108 206.436 484.634 207.364 481.665 208.636C478.695 209.909 476.388 211.633 474.744 213.807C473.1 215.928 472.278 218.58 472.278 221.761C472.278 226.375 473.949 229.902 477.29 232.341C480.684 234.727 484.979 235.92 490.176 235.92ZM575.568 257V134.818H608.42V156.136H609.693C611.92 148.553 615.659 142.826 620.909 138.955C626.159 135.03 632.205 133.068 639.045 133.068C640.742 133.068 642.572 133.174 644.534 133.386C646.496 133.598 648.22 133.89 649.705 134.261V164.33C648.114 163.852 645.913 163.428 643.102 163.057C640.292 162.686 637.72 162.5 635.386 162.5C630.401 162.5 625.947 163.587 622.023 165.761C618.151 167.883 615.076 170.852 612.795 174.67C610.568 178.489 609.455 182.89 609.455 187.875V257H575.568ZM673.031 259.068C667.781 259.068 663.274 257.212 659.508 253.5C655.796 249.735 653.94 245.227 653.94 239.977C653.94 234.78 655.796 230.326 659.508 226.614C663.274 222.902 667.781 221.045 673.031 221.045C678.122 221.045 682.577 222.902 686.395 226.614C690.213 230.326 692.122 234.78 692.122 239.977C692.122 243.477 691.221 246.686 689.418 249.602C687.668 252.466 685.361 254.773 682.497 256.523C679.633 258.22 676.478 259.068 673.031 259.068ZM754.784 259.307C746.989 259.307 740.042 257.955 733.943 255.25C727.845 252.492 723.019 248.436 719.466 243.08C715.966 237.67 714.216 230.936 714.216 222.875C714.216 216.087 715.462 210.386 717.955 205.773C720.447 201.159 723.841 197.447 728.136 194.636C732.432 191.826 737.311 189.705 742.773 188.273C748.288 186.841 754.068 185.833 760.114 185.25C767.22 184.508 772.947 183.818 777.295 183.182C781.644 182.492 784.799 181.485 786.761 180.159C788.723 178.833 789.705 176.871 789.705 174.273V173.795C789.705 168.758 788.114 164.86 784.932 162.102C781.803 159.345 777.348 157.966 771.568 157.966C765.47 157.966 760.617 159.318 757.011 162.023C753.405 164.674 751.019 168.015 749.852 172.045L718.511 169.5C720.102 162.076 723.231 155.659 727.898 150.25C732.564 144.788 738.583 140.598 745.955 137.682C753.379 134.712 761.97 133.227 771.727 133.227C778.515 133.227 785.011 134.023 791.216 135.614C797.473 137.205 803.015 139.67 807.841 143.011C812.72 146.352 816.564 150.648 819.375 155.898C822.186 161.095 823.591 167.326 823.591 174.591V257H791.455V240.057H790.5C788.538 243.875 785.913 247.242 782.625 250.159C779.337 253.023 775.386 255.277 770.773 256.92C766.159 258.511 760.83 259.307 754.784 259.307ZM764.489 235.92C769.473 235.92 773.875 234.939 777.693 232.977C781.511 230.962 784.508 228.258 786.682 224.864C788.856 221.47 789.943 217.625 789.943 213.33V200.364C788.883 201.053 787.424 201.689 785.568 202.273C783.765 202.803 781.723 203.307 779.443 203.784C777.163 204.208 774.883 204.606 772.602 204.977C770.322 205.295 768.254 205.587 766.398 205.852C762.42 206.436 758.947 207.364 755.977 208.636C753.008 209.909 750.701 211.633 749.057 213.807C747.413 215.928 746.591 218.58 746.591 221.761C746.591 226.375 748.261 229.902 751.602 232.341C754.996 234.727 759.292 235.92 764.489 235.92ZM849.881 257V134.818H883.767V257H849.881ZM866.903 119.068C861.865 119.068 857.544 117.398 853.937 114.057C850.384 110.663 848.608 106.606 848.608 101.886C848.608 97.2197 850.384 93.2159 853.937 89.875C857.544 86.4811 861.865 84.7841 866.903 84.7841C871.941 84.7841 876.237 86.4811 879.79 89.875C883.396 93.2159 885.199 97.2197 885.199 101.886C885.199 106.606 883.396 110.663 879.79 114.057C876.237 117.398 871.941 119.068 866.903 119.068Z" fill="white"/>
</svg>
