<svg width="1019" height="351" viewBox="0 0 1019 351" fill="none" xmlns="http://www.w3.org/2000/svg">
<rect width="1018.01" height="351" fill="white"/>
<path d="M177 276.851C186 275.818 202.4 273.351 206 269.351C206.5 268.351 207 265.151 205 260.351C203 255.551 185.5 209.017 177 186.351V276.851Z" fill="#E50027"/>
<path d="M177 101.851C177 99.4506 174.333 98.1839 173 97.8506C101 97.8506 80.5 155.684 80 185.351C80 253.351 146.5 280.351 177 276.851V186.351V101.851Z" fill="#FD0039"/>
<path d="M189 164.851C189 166.851 191 168.851 193 168.851H280C281.5 168.851 283 167.451 283 165.851C288 133.851 261 73.8506 193 73.8506C191.667 74.3506 189 75.8506 189 77.8506V164.851Z" fill="#FE9923"/>
<path d="M193 181.851C191.5 181.851 188.1 184.451 188.5 188.851L219 268.351C219.833 270.517 222.6 274.251 227 271.851C232.5 268.851 285 247.351 284 184.351C284 183.517 283 181.851 279 181.851H193Z" fill="#1988FB"/>
<path d="M402.526 134.818V160.273H328.946V134.818H402.526ZM345.651 105.545H379.537V219.455C379.537 222.583 380.014 225.023 380.969 226.773C381.923 228.47 383.249 229.663 384.946 230.352C386.696 231.042 388.711 231.386 390.991 231.386C392.582 231.386 394.173 231.254 395.764 230.989C397.355 230.67 398.575 230.432 399.423 230.273L404.753 255.489C403.056 256.019 400.669 256.629 397.594 257.318C394.518 258.061 390.779 258.511 386.378 258.67C378.211 258.989 371.052 257.902 364.901 255.409C358.802 252.917 354.056 249.045 350.662 243.795C347.268 238.545 345.597 231.917 345.651 223.909V105.545ZM424.599 257V134.818H458.486V257H424.599ZM441.622 119.068C436.584 119.068 432.262 117.398 428.656 114.057C425.103 110.663 423.327 106.606 423.327 101.886C423.327 97.2197 425.103 93.2159 428.656 89.875C432.262 86.4811 436.584 84.7841 441.622 84.7841C446.66 84.7841 450.955 86.4811 454.508 89.875C458.115 93.2159 459.918 97.2197 459.918 101.886C459.918 106.606 458.115 110.663 454.508 114.057C450.955 117.398 446.66 119.068 441.622 119.068ZM520.472 259.307C512.676 259.307 505.729 257.955 499.631 255.25C493.532 252.492 488.706 248.436 485.153 243.08C481.653 237.67 479.903 230.936 479.903 222.875C479.903 216.087 481.15 210.386 483.642 205.773C486.134 201.159 489.528 197.447 493.824 194.636C498.119 191.826 502.998 189.705 508.46 188.273C513.975 186.841 519.756 185.833 525.801 185.25C532.907 184.508 538.634 183.818 542.983 183.182C547.331 182.492 550.487 181.485 552.449 180.159C554.411 178.833 555.392 176.871 555.392 174.273V173.795C555.392 168.758 553.801 164.86 550.619 162.102C547.49 159.345 543.036 157.966 537.256 157.966C531.157 157.966 526.305 159.318 522.699 162.023C519.093 164.674 516.706 168.015 515.54 172.045L484.199 169.5C485.79 162.076 488.919 155.659 493.585 150.25C498.252 144.788 504.271 140.598 511.642 137.682C519.066 134.712 527.657 133.227 537.415 133.227C544.203 133.227 550.699 134.023 556.903 135.614C563.161 137.205 568.703 139.67 573.528 143.011C578.407 146.352 582.252 150.648 585.062 155.898C587.873 161.095 589.278 167.326 589.278 174.591V257H557.142V240.057H556.187C554.225 243.875 551.6 247.242 548.312 250.159C545.025 253.023 541.074 255.277 536.46 256.92C531.847 258.511 526.517 259.307 520.472 259.307ZM530.176 235.92C535.161 235.92 539.562 234.939 543.381 232.977C547.199 230.962 550.195 228.258 552.369 224.864C554.544 221.47 555.631 217.625 555.631 213.33V200.364C554.57 201.053 553.112 201.689 551.256 202.273C549.453 202.803 547.411 203.307 545.131 203.784C542.85 204.208 540.57 204.606 538.29 204.977C536.009 205.295 533.941 205.587 532.085 205.852C528.108 206.436 524.634 207.364 521.665 208.636C518.695 209.909 516.388 211.633 514.744 213.807C513.1 215.928 512.278 218.58 512.278 221.761C512.278 226.375 513.949 229.902 517.29 232.341C520.684 234.727 524.979 235.92 530.176 235.92ZM615.568 257V134.818H648.42V156.136H649.693C651.92 148.553 655.659 142.826 660.909 138.955C666.159 135.03 672.205 133.068 679.045 133.068C680.742 133.068 682.572 133.174 684.534 133.386C686.496 133.598 688.22 133.89 689.705 134.261V164.33C688.114 163.852 685.913 163.428 683.102 163.057C680.292 162.686 677.72 162.5 675.386 162.5C670.401 162.5 665.947 163.587 662.023 165.761C658.151 167.883 655.076 170.852 652.795 174.67C650.568 178.489 649.455 182.89 649.455 187.875V257H615.568ZM713.031 259.068C707.781 259.068 703.274 257.212 699.508 253.5C695.796 249.735 693.94 245.227 693.94 239.977C693.94 234.78 695.796 230.326 699.508 226.614C703.274 222.902 707.781 221.045 713.031 221.045C718.122 221.045 722.577 222.902 726.395 226.614C730.213 230.326 732.122 234.78 732.122 239.977C732.122 243.477 731.221 246.686 729.418 249.602C727.668 252.466 725.361 254.773 722.497 256.523C719.633 258.22 716.478 259.068 713.031 259.068ZM794.784 259.307C786.989 259.307 780.042 257.955 773.943 255.25C767.845 252.492 763.019 248.436 759.466 243.08C755.966 237.67 754.216 230.936 754.216 222.875C754.216 216.087 755.462 210.386 757.955 205.773C760.447 201.159 763.841 197.447 768.136 194.636C772.432 191.826 777.311 189.705 782.773 188.273C788.288 186.841 794.068 185.833 800.114 185.25C807.22 184.508 812.947 183.818 817.295 183.182C821.644 182.492 824.799 181.485 826.761 180.159C828.723 178.833 829.705 176.871 829.705 174.273V173.795C829.705 168.758 828.114 164.86 824.932 162.102C821.803 159.345 817.348 157.966 811.568 157.966C805.47 157.966 800.617 159.318 797.011 162.023C793.405 164.674 791.019 168.015 789.852 172.045L758.511 169.5C760.102 162.076 763.231 155.659 767.898 150.25C772.564 144.788 778.583 140.598 785.955 137.682C793.379 134.712 801.97 133.227 811.727 133.227C818.515 133.227 825.011 134.023 831.216 135.614C837.473 137.205 843.015 139.67 847.841 143.011C852.72 146.352 856.564 150.648 859.375 155.898C862.186 161.095 863.591 167.326 863.591 174.591V257H831.455V240.057H830.5C828.538 243.875 825.913 247.242 822.625 250.159C819.337 253.023 815.386 255.277 810.773 256.92C806.159 258.511 800.83 259.307 794.784 259.307ZM804.489 235.92C809.473 235.92 813.875 234.939 817.693 232.977C821.511 230.962 824.508 228.258 826.682 224.864C828.856 221.47 829.943 217.625 829.943 213.33V200.364C828.883 201.053 827.424 201.689 825.568 202.273C823.765 202.803 821.723 203.307 819.443 203.784C817.163 204.208 814.883 204.606 812.602 204.977C810.322 205.295 808.254 205.587 806.398 205.852C802.42 206.436 798.947 207.364 795.977 208.636C793.008 209.909 790.701 211.633 789.057 213.807C787.413 215.928 786.591 218.58 786.591 221.761C786.591 226.375 788.261 229.902 791.602 232.341C794.996 234.727 799.292 235.92 804.489 235.92ZM889.881 257V134.818H923.767V257H889.881ZM906.903 119.068C901.865 119.068 897.544 117.398 893.937 114.057C890.384 110.663 888.608 106.606 888.608 101.886C888.608 97.2197 890.384 93.2159 893.937 89.875C897.544 86.4811 901.865 84.7841 906.903 84.7841C911.941 84.7841 916.237 86.4811 919.79 89.875C923.396 93.2159 925.199 97.2197 925.199 101.886C925.199 106.606 923.396 110.663 919.79 114.057C916.237 117.398 911.941 119.068 906.903 119.068Z" fill="black"/>
</svg>
